{"asset":{"version":"2.0","generator":"3body bake-pit-gltf"},"scene":0,"scenes":[{"nodes":[0]}],"nodes":[{"mesh":0,"name":"PitRimRing"}],"meshes":[{"name":"PitRimRing","primitives":[{"attributes":{"POSITION":0,"NORMAL":1},"indices":2,"mode":4}]}],"accessors":[{"bufferView":0,"componentType":5126,"count":1095,"type":"VEC3","max":[10.799999999999999,0.52,10.799999999999999],"min":[-10.799999999999999,-0.52,-10.799999999999999]},{"bufferView":1,"componentType":5126,"count":1095,"type":"VEC3"},{"bufferView":2,"componentType":5123,"count":6048,"type":"SCALAR"}],"bufferViews":[{"buffer":0,"byteOffset":0,"byteLength":13140,"target":34962},{"buffer":0,"byteOffset":13140,"byteLength":13140,"target":34962},{"buffer":0,"byteOffset":26280,"byteLength":12096,"target":34963}],"buffers":[{"byteLength":38376,"uri":"data:application/octet-stream;base64,"}]}