{"asset":{"version":"2.0","generator":"3body-hero-gltf-script"},"scene":0,"scenes":[{"nodes":[0]}],"nodes":[{"mesh":0,"name":"GrovePoolRimHero"}],"meshes":[{"name":"GrovePoolRimHero","primitives":[{"attributes":{"POSITION":0,"NORMAL":1},"material":0,"indices":2}]}],"materials":[{"name":"HeroMossStone","pbrMetallicRoughness":{"baseColorFactor":[0.42,0.46,0.38,1],"metallicFactor":0.04,"roughnessFactor":0.78}}],"accessors":[{"bufferView":0,"componentType":5126,"count":741,"type":"VEC3","min":[-4.269999980926514,-0.3199999928474426,-4.269999980926514],"max":[4.269999980926514,0.3199999928474426,4.269999980926514]},{"bufferView":1,"componentType":5126,"count":741,"type":"VEC3"},{"bufferView":2,"componentType":5123,"count":4032,"type":"SCALAR"}],"bufferViews":[{"buffer":0,"byteOffset":0,"byteLength":8892,"target":34962},{"buffer":0,"byteOffset":8892,"byteLength":8892,"target":34962},{"buffer":0,"byteOffset":17784,"byteLength":8064,"target":34963}],"buffers":[{"byteLength":25848,"uri":"data:application/octet-stream;base64,"}]}