{"asset":{"version":"2.0","generator":"3body-hero-gltf-script"},"scene":0,"scenes":[{"nodes":[0]}],"nodes":[{"mesh":0,"name":"GroveKeeperHero"}],"meshes":[{"name":"GroveKeeperHero","primitives":[{"attributes":{"POSITION":0,"NORMAL":1},"material":0,"indices":2}]}],"materials":[{"name":"GroveKeeperCloth","pbrMetallicRoughness":{"baseColorFactor":[0.52,0.58,0.42,1],"metallicFactor":0.02,"roughnessFactor":0.9}}],"accessors":[{"bufferView":0,"componentType":5126,"count":195,"type":"VEC3","min":[-0.41999998688697815,0.019999999552965164,-0.41999998688697815],"max":[0.41999998688697815,1.7000000476837158,0.41999998688697815]},{"bufferView":1,"componentType":5126,"count":195,"type":"VEC3"},{"bufferView":2,"componentType":5123,"count":840,"type":"SCALAR"}],"bufferViews":[{"buffer":0,"byteOffset":0,"byteLength":2340,"target":34962},{"buffer":0,"byteOffset":2340,"byteLength":2340,"target":34962},{"buffer":0,"byteOffset":4680,"byteLength":1680,"target":34963}],"buffers":[{"byteLength":6360,"uri":"data:application/octet-stream;base64,"}]}