{"asset":{"version":"2.0","generator":"3body-hero-gltf-script"},"scene":0,"scenes":[{"nodes":[0]}],"nodes":[{"mesh":0,"name":"ObservatoryTrimHero"}],"meshes":[{"name":"ObservatoryTrimHero","primitives":[{"attributes":{"POSITION":0,"NORMAL":1},"material":0,"indices":2}]}],"materials":[{"name":"HeroStone","pbrMetallicRoughness":{"baseColorFactor":[0.52,0.48,0.42,1],"metallicFactor":0.05,"roughnessFactor":0.82}}],"accessors":[{"bufferView":0,"componentType":5126,"count":930,"type":"VEC3","min":[-4.869999885559082,0.030000001192092896,-4.869999885559082],"max":[4.869999885559082,3.8499999046325684,6.724999904632568]},{"bufferView":1,"componentType":5126,"count":930,"type":"VEC3"},{"bufferView":2,"componentType":5123,"count":4404,"type":"SCALAR"}],"bufferViews":[{"buffer":0,"byteOffset":0,"byteLength":11160,"target":34962},{"buffer":0,"byteOffset":11160,"byteLength":11160,"target":34962},{"buffer":0,"byteOffset":22320,"byteLength":8808,"target":34963}],"buffers":[{"byteLength":31128,"uri":"data:application/octet-stream;base64,"}]}