{"asset":{"version":"2.0","generator":"3body-hero-gltf-script"},"scene":0,"scenes":[{"nodes":[0]}],"nodes":[{"mesh":0,"name":"ObservatoryDomeHero"}],"meshes":[{"name":"ObservatoryDomeHero","primitives":[{"attributes":{"POSITION":0,"NORMAL":1},"material":0,"indices":2}]}],"materials":[{"name":"HeroStone","pbrMetallicRoughness":{"baseColorFactor":[0.52,0.48,0.42,1],"metallicFactor":0.05,"roughnessFactor":0.82}}],"accessors":[{"bufferView":0,"componentType":5126,"count":561,"type":"VEC3","min":[-4.699999809265137,2.8779199050517974e-16,-4.696507930755615],"max":[3.6248562335968018,4.699999809265137,4.696507930755615]},{"bufferView":1,"componentType":5126,"count":561,"type":"VEC3"},{"bufferView":2,"componentType":5123,"count":2976,"type":"SCALAR"}],"bufferViews":[{"buffer":0,"byteOffset":0,"byteLength":6732,"target":34962},{"buffer":0,"byteOffset":6732,"byteLength":6732,"target":34962},{"buffer":0,"byteOffset":13464,"byteLength":5952,"target":34963}],"buffers":[{"byteLength":19416,"uri":"data:application/octet-stream;base64,"}]}