{"asset":{"version":"2.0","generator":"3body-pit-hero-script"},"scene":0,"scenes":[{"nodes":[0]}],"nodes":[{"mesh":0,"name":"PitRimHero"}],"meshes":[{"name":"PitRimHero","primitives":[{"attributes":{"POSITION":0,"NORMAL":1},"material":0,"indices":2}]}],"materials":[{"name":"PitRimBasalt","pbrMetallicRoughness":{"baseColorFactor":[0.48,0.43,0.38,1],"metallicFactor":0.06,"roughnessFactor":0.88}}],"accessors":[{"bufferView":0,"componentType":5126,"count":539,"type":"VEC3","min":[-9.742483139038086,-0.5230810642242432,-8.6873140335083],"max":[9.75,0.5230810642242432,9.748120307922363]},{"bufferView":1,"componentType":5126,"count":539,"type":"VEC3"},{"bufferView":2,"componentType":5123,"count":2880,"type":"SCALAR"}],"bufferViews":[{"buffer":0,"byteOffset":0,"byteLength":6468,"target":34962},{"buffer":0,"byteOffset":6468,"byteLength":6468,"target":34962},{"buffer":0,"byteOffset":12936,"byteLength":5760,"target":34963}],"buffers":[{"byteLength":18696,"uri":"data:application/octet-stream;base64,"}]}