{"asset":{"version":"2.0","generator":"3body-hero-gltf-script"},"scene":0,"scenes":[{"nodes":[0]}],"nodes":[{"mesh":0,"name":"PredictorHero"}],"meshes":[{"name":"PredictorHero","primitives":[{"attributes":{"POSITION":0,"NORMAL":1},"material":0,"indices":2}]}],"materials":[{"name":"PredictorCloth","pbrMetallicRoughness":{"baseColorFactor":[0.62,0.58,0.52,1],"metallicFactor":0.02,"roughnessFactor":0.9}}],"accessors":[{"bufferView":0,"componentType":5126,"count":643,"type":"VEC3","min":[-0.6603079438209534,-0.11400000005960464,-0.4000000059604645],"max":[0.46399998664855957,1.7276939153671265,1.5640000104904175]},{"bufferView":1,"componentType":5126,"count":643,"type":"VEC3"},{"bufferView":2,"componentType":5123,"count":3000,"type":"SCALAR"}],"bufferViews":[{"buffer":0,"byteOffset":0,"byteLength":7716,"target":34962},{"buffer":0,"byteOffset":7716,"byteLength":7716,"target":34962},{"buffer":0,"byteOffset":15432,"byteLength":6000,"target":34963}],"buffers":[{"byteLength":21432,"uri":"data:application/octet-stream;base64,"}]}