{"asset":{"version":"2.0","generator":"3body-hero-gltf-script"},"scene":0,"scenes":[{"nodes":[0]}],"nodes":[{"mesh":0,"name":"RegistrarHero"}],"meshes":[{"name":"RegistrarHero","primitives":[{"attributes":{"POSITION":0,"NORMAL":1},"material":0,"indices":2}]}],"materials":[{"name":"HeroCloth","pbrMetallicRoughness":{"baseColorFactor":[0.78,0.72,0.62,1],"metallicFactor":0.02,"roughnessFactor":0.92}}],"accessors":[{"bufferView":0,"componentType":5126,"count":253,"type":"VEC3","min":[-0.41999998688697815,0.019999999552965164,-0.41999998688697815],"max":[0.41999998688697815,1.7400000095367432,0.41999998688697815]},{"bufferView":1,"componentType":5126,"count":253,"type":"VEC3"},{"bufferView":2,"componentType":5123,"count":936,"type":"SCALAR"}],"bufferViews":[{"buffer":0,"byteOffset":0,"byteLength":3036,"target":34962},{"buffer":0,"byteOffset":3036,"byteLength":3036,"target":34962},{"buffer":0,"byteOffset":6072,"byteLength":1872,"target":34963}],"buffers":[{"byteLength":7944,"uri":"data:application/octet-stream;base64,"}]}